<svg id="Layer_1" data-name="Layer 1" xmlns="http://www.w3.org/2000/svg" viewBox="0 0 600 600"><defs><style>.cls-1{fill:#121212;stroke:#231f20;stroke-miterlimit:10;}</style></defs><title>insprd11</title><path class="cls-1" d="M420.87,395.37c0-1.91,1.91-20.51,1.91-22.42-13.83,47.22-42,79.66-88.25,79.66-53.42,0-85.38-48.66-77.75-128.32,6.68-67.73,52-125,122.59-125,24.33,0,42,11.92,52.47,28.62,0-5.25,11.45-121.16,11.45-121.16H407L409,89.13c54.85,0,83.47-2.38,92.06-5.72l10,4.77L474.77,398.23c-1.9,18.6,1,29.57,11.45,29.57,12.4,0,20.51-14.31,25.76-54.38h18.13c-7.16,50.09-17.65,78.71-63.44,78.71C432.8,452.13,419.44,432.1,420.87,395.37ZM419,327.16c.47-4.3,2.38-21.47,2.86-24.81,4.29-55.81-11.93-84.43-40.55-84.43-29.57,0-49.13,40.07-55.81,104.47-6.2,62,4.29,97.3,36.25,97.3C392.25,419.69,411.81,377.72,419,327.16Z"/><path class="cls-1" d="M82.83,381.53l19.08-157.88H65.65l1.91-18.13c54.86,0,83.95-1.91,92.54-5.25l9.54,4.3L146.27,399.66c-2.39,19.08.47,28.14,11,28.14,12.88,0,21.46-16.69,26.23-53.9H201.6c-6.68,47.23-17.65,78.23-65.35,78.23C99,452.13,76.62,433.53,82.83,381.53ZM100,127.77c0-16.7,12.4-39.59,43.4-39.59,29.1,0,38.64,21.46,38.64,36.73C182,141.6,169.16,164,138.63,164,109.06,164,100,143,100,127.77Z"/><circle class="cls-1" cx="211.28" cy="290.44" r="30.47"/></svg>